<svg data-v-6805eed4="" version="1.0" xmlns="http://www.w3.org/2000/svg" xmlns:xlink="http://www.w3.org/1999/xlink" width="100%" height="100%" viewBox="0 0 234.000000 89.000000" preserveAspectRatio="xMidYMid meet" color-interpolation-filters="sRGB" style="margin: auto;">
<!--    <rect x="0" y="0" width="100%" height="100%" fill="#0c343d" fill-opacity="1" class="background"></rect>-->
    <rect fill="none" x="0" y="0" width="100%" height="100%" fill-opacity="1" class="background"></rect>
    <rect fill="none" x="0" y="0" width="100%" height="100%" fill-opacity="1"></rect>
    <g fill="#f9bf4b" class="iconbordersvg" transform="translate(53.78491973876953,89.50302505493164)">
        <g>
            <g>
                <rect
                    stroke-width="0"
                    x="0"
                    y="0"
                    width="232.43016052246094"
                    height="70.99394989013672"
                    fill-opacity="0"
                    stroke="rgb(249, 191, 75)">
                </rect>
            </g>
            <g transform="translate(-50,-85)">
                <g transform="translate(160.43016052246094,10)" mask="url(#2704e37e-0c88-4db7-bc65-90572c98d29a)">
                    <g>
                        <rect stroke-width="2" class="i-icon-bg"></rect>
                        <polyline
                            stroke-width="0"
                            fill="#ffe599"
                            x="0"
                            y="0"
                            width="56"
                            height="70.99394989013672"
                            fill-opacity="1"
                            stroke="rgb(255, 229, 153)"
                            points="0,0 66,0 56,70.99394989013672 -10,70.99394989013672, 0,0">
                        </polyline>
                    </g>
                    <g transform="translate(4,6.642658233642578)">
                        <g>
                            <g>
                                <svg
                                    x="0"
                                    y="0"
                                    width="46"
                                    height="51.70863309352518"
                                    style="overflow: visible;">
                                    <svg xmlns="http://www.w3.org/2000/svg" xmlns:xlink="http://www.w3.org/1999/xlink" version="1.1" x="0px" y="0px" viewBox="23.04599952697754 17.604999542236328 54.962005615234375 61.78300094604492" xml:space="preserve">
                                        <g>
                                            <path d="M61.298,34.803l-1.485-0.622c-2.945-1.235-6.069-1.861-9.286-1.861   c-3.217,0-6.342,0.626-9.287,1.861l-1.485,0.622l-0.717-1.442c-0.894-1.799-1.348-3.718-1.348-5.703   c0-6.389,4.679-10.053,12.837-10.053c8.158,0,12.836,3.665,12.836,10.053c0,1.986-0.454,3.904-1.348,5.703L61.298,34.803z    M50.527,21.04c-6.239,0-9.402,2.227-9.402,6.618c0,0.933,0.138,1.848,0.411,2.733c5.768-1.999,12.213-2,17.982,0   c0.273-0.885,0.411-1.799,0.411-2.733C59.928,23.266,56.765,21.04,50.527,21.04z">
                                            </path>
                                            <path d="M50.527,79.388c-16.694,0-27.481-9.037-27.481-23.022c0-15.153,12.328-27.481,27.481-27.481   s27.481,12.328,27.481,27.481C78.008,70.351,67.221,79.388,50.527,79.388z M50.527,32.32c-13.259,0-24.046,10.787-24.046,24.046   c0,14.441,12.421,19.587,24.046,19.587s24.046-5.146,24.046-19.587C74.573,43.106,63.786,32.32,50.527,32.32z">
                                            </path>
                                            <path d="M57.213,56.966c-0.454-4.107-3.691-5.474-6.46-6.206v-4.354c1.121,0.054,1.848,0.367,2.014,0.446   c0.329,0.157,0.712,0.155,1.039-0.006c0.328-0.161,0.564-0.462,0.642-0.818l0.467-2.131c0.121-0.553-0.162-1.116-0.68-1.347   c-0.937-0.419-2.159-0.642-3.481-0.654v-2.025c0-0.509-0.412-0.921-0.921-0.921s-0.921,0.412-0.921,0.921v2.149   c-4.162,0.593-6.867,3.601-6.463,7.264c0.33,2.989,2.452,4.94,6.463,5.962v4.964c-1.128,0.006-2.288-0.238-3.217-0.698   c-0.335-0.166-0.725-0.166-1.06-0.001c-0.333,0.164-0.571,0.475-0.644,0.84l-0.432,2.186c-0.103,0.521,0.151,1.049,0.623,1.293   c1.156,0.599,2.988,0.94,4.729,0.914v2.025c0,0.509,0.412,0.921,0.921,0.921s0.921-0.412,0.921-0.921v-2.205   C55.689,63.705,57.571,60.202,57.213,56.966z M47.339,48.451c-0.079-0.716,0.316-1.524,1.572-1.872v3.585   C47.591,49.614,47.41,49.099,47.339,48.451z M50.753,59.929v-4.091c1.289,0.569,1.485,1.194,1.56,1.875   C52.458,59.014,51.597,59.634,50.753,59.929z">
                                            </path>
                                        </g>
                                    </svg>
                                </svg>
                                <defs>
                                    <filter>
                                        <feColorMatrix type="matrix" values="0 0 0 0 0.99609375  0 0 0 0 0.89453125  0 0 0 0 0.59765625  0 0 0 1 0">
                                        </feColorMatrix></filter>
                                    <filter>
                                        <feColorMatrix type="matrix" values="0 0 0 0 0.99609375  0 0 0 0 0.99609375  0 0 0 0 0.99609375  0 0 0 1 0" ></feColorMatrix>
                                    </filter>
                                    <filter id="colorsb1714707608">
                                        <feColorMatrix type="matrix" values="0 0 0 0 0  0 0 0 0 0  0 0 0 0 0  0 0 0 1 0">
                                        </feColorMatrix>
                                    </filter>
                                </defs>
                            </g>
                        </g>
                    </g>
                </g>
                <g transform="translate(0,0)" mask="url(#c428ed83-0d2e-4002-a0f8-403ecf54406a)">
                    <g>
                        <rect stroke-width="2"></rect>
                        <polyline
                            stroke-width="0"
                            x="0"
                            y="0"
                            width="164.43016052246094"
                            height="70.99394989013672"
                            fill-opacity="1"
                            stroke="rgb(249, 191, 75)"
                            points="10,0 164.43016052246094,0 154.43016052246094,70.99394989013672 0,70.99394989013672, 10,0">
                        </polyline>
                    </g>
                    <g transform="translate(15,5)">
                        <g>
                            <g transform="scale(1)">
                                <g>
                                    <path d="M9.74 0.22Q7.45 0.22 5.61-0.57 3.77-1.35 2.7-2.83 1.63-4.3 1.6-6.32L1.6-6.32 6.32-6.32Q6.41-4.96 7.27-4.18 8.14-3.39 9.65-3.39L9.65-3.39Q11.19-3.39 12.07-4.13 12.95-4.87 12.95-6.06L12.95-6.06Q12.95-7.04 12.35-7.67 11.75-8.3 10.86-8.66 9.96-9.02 8.39-9.46L8.39-9.46Q6.25-10.09 4.92-10.7 3.58-11.31 2.62-12.55 1.67-13.79 1.67-15.87L1.67-15.87Q1.67-17.82 2.64-19.26 3.61-20.71 5.37-21.48 7.13-22.25 9.4-22.25L9.4-22.25Q12.79-22.25 14.91-20.6 17.03-18.95 17.25-15.99L17.25-15.99 12.41-15.99Q12.35-17.12 11.45-17.86 10.56-18.6 9.08-18.6L9.08-18.6Q7.79-18.6 7.02-17.94 6.25-17.28 6.25-16.03L6.25-16.03Q6.25-15.15 6.83-14.56 7.42-13.98 8.28-13.62 9.14-13.26 10.71-12.79L10.71-12.79Q12.85-12.16 14.2-11.53 15.55-10.9 16.53-9.65 17.5-8.39 17.5-6.35L17.5-6.35Q17.5-4.59 16.59-3.08 15.68-1.57 13.92-0.68 12.16 0.22 9.74 0.22L9.74 0.22ZM36.2 0L34.75-4.18 26.02-4.18 24.57 0 19.95 0 27.84-21.96 32.96-21.96 40.85 0 36.2 0ZM27.21-7.7L33.56-7.7 30.38-16.87 27.21-7.7ZM58.82-21.93L63.5-21.93 55.46 0 50.12 0 42.07-21.93 46.79-21.93 52.82-4.49 58.82-21.93ZM78.87-18.38L70.54-18.38 70.54-12.88 77.93-12.88 77.93-9.4 70.54-9.4 70.54-3.58 78.87-3.58 78.87 0 66.14 0 66.14-21.96 78.87-21.96 78.87-18.38ZM109.29-21.93L114.25-21.93 114.25 0 109.85 0 109.85-14.27 103.97 0 100.64 0 94.74-14.27 94.74 0 90.34 0 90.34-21.93 95.33-21.93 102.31-5.62 109.29-21.93ZM131.12-21.93L136.03-21.93 128.61-7.64 128.61 0 124.21 0 124.21-7.64 116.76-21.93 121.73-21.93 126.44-11.91 131.12-21.93Z" transform="translate(-1.600000023841858, 22.25)">
                                    </path>
                                </g>
                                <g fill="#f9bf4b" transform="translate(0,25.469999313354492)">
                                    <g transform="scale(1.02345)">
                                        <path d="M1.7-16.99Q1.7-21.99 3.96-25.95 6.21-29.9 10.12-32.11 14.03-34.32 18.88-34.32L18.88-34.32Q24.56-34.32 28.83-31.41 33.11-28.49 34.8-23.35L34.8-23.35 26.99-23.35Q25.82-25.78 23.71-26.99 21.6-28.2 18.83-28.2L18.83-28.2Q15.87-28.2 13.57-26.82 11.26-25.44 9.98-22.91 8.69-20.39 8.69-16.99L8.69-16.99Q8.69-13.64 9.98-11.09 11.26-8.54 13.57-7.16 15.87-5.78 18.83-5.78L18.83-5.78Q21.6-5.78 23.71-7.01 25.82-8.25 26.99-10.68L26.99-10.68 34.8-10.68Q33.11-5.49 28.86-2.6 24.61 0.29 18.88 0.29L18.88 0.29Q14.03 0.29 10.12-1.92 6.21-4.13 3.96-8.06 1.7-11.99 1.7-16.99L1.7-16.99ZM63.64 0L61.41-6.46 47.91-6.46 45.68 0 38.54 0 50.73-33.93 58.64-33.93 70.82 0 63.64 0ZM49.76-11.89L59.56-11.89 54.66-26.07 49.76-11.89ZM87.08 0.34Q83.54 0.34 80.7-0.87 77.86-2.09 76.21-4.37 74.56-6.65 74.51-9.76L74.51-9.76 81.79-9.76Q81.94-7.67 83.27-6.46 84.61-5.24 86.94-5.24L86.94-5.24Q89.32-5.24 90.68-6.38 92.04-7.52 92.04-9.37L92.04-9.37Q92.04-10.87 91.11-11.84 90.19-12.82 88.81-13.37 87.42-13.93 85-14.61L85-14.61Q81.7-15.58 79.63-16.53 77.57-17.48 76.09-19.39 74.61-21.31 74.61-24.51L74.61-24.51Q74.61-27.52 76.11-29.76 77.62-31.99 80.34-33.18 83.05-34.37 86.55-34.37L86.55-34.37Q91.79-34.37 95.07-31.82 98.35-29.27 98.69-24.71L98.69-24.71 91.21-24.71Q91.11-26.46 89.73-27.6 88.35-28.74 86.06-28.74L86.06-28.74Q84.07-28.74 82.88-27.72 81.7-26.7 81.7-24.76L81.7-24.76Q81.7-23.4 82.59-22.5 83.49-21.6 84.83-21.04 86.16-20.48 88.59-19.76L88.59-19.76Q91.89-18.79 93.98-17.81 96.06-16.84 97.57-14.9 99.07-12.96 99.07-9.81L99.07-9.81Q99.07-7.09 97.67-4.76 96.26-2.43 93.54-1.04 90.82 0.34 87.08 0.34L87.08 0.34ZM126.26-33.88L133.05-33.88 133.05 0 126.26 0 126.26-14.42 111.74-14.42 111.74 0 104.95 0 104.95-33.88 111.74-33.88 111.74-19.95 126.26-19.95 126.26-33.88Z" transform="translate(-1.7000000476837158, 34.369998931884766)">
                                        </path>
                                    </g>
                                </g>
                            </g>
                        </g>
                    </g>
                </g>
            </g>
        </g>
    </g>
    <mask id="c428ed83-0d2e-4002-a0f8-403ecf54406a">
        <g fill="white">
            <rect stroke-width="2"></rect>
            <polyline
                stroke-width="0"
                x="0"
                y="0"
                width="164.43016052246094"
                height="70.99394989013672"
                fill-opacity="1"
                stroke="rgb(249, 191, 75)"
                points="10,0 164.43016052246094,0 154.43016052246094,70.99394989013672 0,70.99394989013672, 10,0">
            </polyline>
        </g>
        <g transform="translate(15,5)" fill="black">
            <g>
                <g transform="scale(1)">
                    <g>
                        <path d="M9.74 0.22Q7.45 0.22 5.61-0.57 3.77-1.35 2.7-2.83 1.63-4.3 1.6-6.32L1.6-6.32 6.32-6.32Q6.41-4.96 7.27-4.18 8.14-3.39 9.65-3.39L9.65-3.39Q11.19-3.39 12.07-4.13 12.95-4.87 12.95-6.06L12.95-6.06Q12.95-7.04 12.35-7.67 11.75-8.3 10.86-8.66 9.96-9.02 8.39-9.46L8.39-9.46Q6.25-10.09 4.92-10.7 3.58-11.31 2.62-12.55 1.67-13.79 1.67-15.87L1.67-15.87Q1.67-17.82 2.64-19.26 3.61-20.71 5.37-21.48 7.13-22.25 9.4-22.25L9.4-22.25Q12.79-22.25 14.91-20.6 17.03-18.95 17.25-15.99L17.25-15.99 12.41-15.99Q12.35-17.12 11.45-17.86 10.56-18.6 9.08-18.6L9.08-18.6Q7.79-18.6 7.02-17.94 6.25-17.28 6.25-16.03L6.25-16.03Q6.25-15.15 6.83-14.56 7.42-13.98 8.28-13.62 9.14-13.26 10.71-12.79L10.71-12.79Q12.85-12.16 14.2-11.53 15.55-10.9 16.53-9.65 17.5-8.39 17.5-6.35L17.5-6.35Q17.5-4.59 16.59-3.08 15.68-1.57 13.92-0.68 12.16 0.22 9.74 0.22L9.74 0.22ZM36.2 0L34.75-4.18 26.02-4.18 24.57 0 19.95 0 27.84-21.96 32.96-21.96 40.85 0 36.2 0ZM27.21-7.7L33.56-7.7 30.38-16.87 27.21-7.7ZM58.82-21.93L63.5-21.93 55.46 0 50.12 0 42.07-21.93 46.79-21.93 52.82-4.49 58.82-21.93ZM78.87-18.38L70.54-18.38 70.54-12.88 77.93-12.88 77.93-9.4 70.54-9.4 70.54-3.58 78.87-3.58 78.87 0 66.14 0 66.14-21.96 78.87-21.96 78.87-18.38ZM109.29-21.93L114.25-21.93 114.25 0 109.85 0 109.85-14.27 103.97 0 100.64 0 94.74-14.27 94.74 0 90.34 0 90.34-21.93 95.33-21.93 102.31-5.62 109.29-21.93ZM131.12-21.93L136.03-21.93 128.61-7.64 128.61 0 124.21 0 124.21-7.64 116.76-21.93 121.73-21.93 126.44-11.91 131.12-21.93Z" transform="translate(-1.600000023841858, 22.25)">
                        </path>
                    </g>
                    <g transform="translate(0,25.469999313354492)">
                        <g transform="scale(1.02345)">
                            <path d="M1.7-16.99Q1.7-21.99 3.96-25.95 6.21-29.9 10.12-32.11 14.03-34.32 18.88-34.32L18.88-34.32Q24.56-34.32 28.83-31.41 33.11-28.49 34.8-23.35L34.8-23.35 26.99-23.35Q25.82-25.78 23.71-26.99 21.6-28.2 18.83-28.2L18.83-28.2Q15.87-28.2 13.57-26.82 11.26-25.44 9.98-22.91 8.69-20.39 8.69-16.99L8.69-16.99Q8.69-13.64 9.98-11.09 11.26-8.54 13.57-7.16 15.87-5.78 18.83-5.78L18.83-5.78Q21.6-5.78 23.71-7.01 25.82-8.25 26.99-10.68L26.99-10.68 34.8-10.68Q33.11-5.49 28.86-2.6 24.61 0.29 18.88 0.29L18.88 0.29Q14.03 0.29 10.12-1.92 6.21-4.13 3.96-8.06 1.7-11.99 1.7-16.99L1.7-16.99ZM63.64 0L61.41-6.46 47.91-6.46 45.68 0 38.54 0 50.73-33.93 58.64-33.93 70.82 0 63.64 0ZM49.76-11.89L59.56-11.89 54.66-26.07 49.76-11.89ZM87.08 0.34Q83.54 0.34 80.7-0.87 77.86-2.09 76.21-4.37 74.56-6.65 74.51-9.76L74.51-9.76 81.79-9.76Q81.94-7.67 83.27-6.46 84.61-5.24 86.94-5.24L86.94-5.24Q89.32-5.24 90.68-6.38 92.04-7.52 92.04-9.37L92.04-9.37Q92.04-10.87 91.11-11.84 90.19-12.82 88.81-13.37 87.42-13.93 85-14.61L85-14.61Q81.7-15.58 79.63-16.53 77.57-17.48 76.09-19.39 74.61-21.31 74.61-24.51L74.61-24.51Q74.61-27.52 76.11-29.76 77.62-31.99 80.34-33.18 83.05-34.37 86.55-34.37L86.55-34.37Q91.79-34.37 95.07-31.82 98.35-29.27 98.69-24.71L98.69-24.71 91.21-24.71Q91.11-26.46 89.73-27.6 88.35-28.74 86.06-28.74L86.06-28.74Q84.07-28.74 82.88-27.72 81.7-26.7 81.7-24.76L81.7-24.76Q81.7-23.4 82.59-22.5 83.49-21.6 84.83-21.04 86.16-20.48 88.59-19.76L88.59-19.76Q91.89-18.79 93.98-17.81 96.06-16.84 97.57-14.9 99.07-12.96 99.07-9.81L99.07-9.81Q99.07-7.09 97.67-4.76 96.26-2.43 93.54-1.04 90.82 0.34 87.08 0.34L87.08 0.34ZM126.26-33.88L133.05-33.88 133.05 0 126.26 0 126.26-14.42 111.74-14.42 111.74 0 104.95 0 104.95-33.88 111.74-33.88 111.74-19.95 126.26-19.95 126.26-33.88Z" transform="translate(-1.7000000476837158, 34.369998931884766)">
                            </path>
                        </g>
                    </g>
                </g>
            </g>
        </g>
    </mask>
    <mask id="2704e37e-0c88-4db7-bc65-90572c98d29a">
        <g fill="white">
            <rect stroke-width="2"></rect>
            <polyline
                stroke-width="0"
                x="0"
                y="0"
                width="56"
                height="70.99394989013672"
                fill-opacity="1"
                stroke="rgb(255, 229, 153)"
                points="0,0 66,0 56,70.99394989013672 -10,70.99394989013672, 0,0">
            </polyline>
        </g>
        <g transform="translate(4,6.642658233642578)" fill="black">
            <g>
                <g>
                    <svg x="0" y="0" width="46" height="51.70863309352518" style="overflow: visible;" filter="url(#colorsb1714707608)"><svg xmlns="http://www.w3.org/2000/svg" xmlns:xlink="http://www.w3.org/1999/xlink" version="1.1" x="0px" y="0px" viewBox="23.04599952697754 17.604999542236328 54.962005615234375 61.78300094604492" xml:space="preserve">
                        <g>
                            <path d="M61.298,34.803l-1.485-0.622c-2.945-1.235-6.069-1.861-9.286-1.861   c-3.217,0-6.342,0.626-9.287,1.861l-1.485,0.622l-0.717-1.442c-0.894-1.799-1.348-3.718-1.348-5.703   c0-6.389,4.679-10.053,12.837-10.053c8.158,0,12.836,3.665,12.836,10.053c0,1.986-0.454,3.904-1.348,5.703L61.298,34.803z    M50.527,21.04c-6.239,0-9.402,2.227-9.402,6.618c0,0.933,0.138,1.848,0.411,2.733c5.768-1.999,12.213-2,17.982,0   c0.273-0.885,0.411-1.799,0.411-2.733C59.928,23.266,56.765,21.04,50.527,21.04z">
                            </path>
                            <path d="M50.527,79.388c-16.694,0-27.481-9.037-27.481-23.022c0-15.153,12.328-27.481,27.481-27.481   s27.481,12.328,27.481,27.481C78.008,70.351,67.221,79.388,50.527,79.388z M50.527,32.32c-13.259,0-24.046,10.787-24.046,24.046   c0,14.441,12.421,19.587,24.046,19.587s24.046-5.146,24.046-19.587C74.573,43.106,63.786,32.32,50.527,32.32z">
                            </path>
                            <path d="M57.213,56.966c-0.454-4.107-3.691-5.474-6.46-6.206v-4.354c1.121,0.054,1.848,0.367,2.014,0.446   c0.329,0.157,0.712,0.155,1.039-0.006c0.328-0.161,0.564-0.462,0.642-0.818l0.467-2.131c0.121-0.553-0.162-1.116-0.68-1.347   c-0.937-0.419-2.159-0.642-3.481-0.654v-2.025c0-0.509-0.412-0.921-0.921-0.921s-0.921,0.412-0.921,0.921v2.149   c-4.162,0.593-6.867,3.601-6.463,7.264c0.33,2.989,2.452,4.94,6.463,5.962v4.964c-1.128,0.006-2.288-0.238-3.217-0.698   c-0.335-0.166-0.725-0.166-1.06-0.001c-0.333,0.164-0.571,0.475-0.644,0.84l-0.432,2.186c-0.103,0.521,0.151,1.049,0.623,1.293   c1.156,0.599,2.988,0.94,4.729,0.914v2.025c0,0.509,0.412,0.921,0.921,0.921s0.921-0.412,0.921-0.921v-2.205   C55.689,63.705,57.571,60.202,57.213,56.966z M47.339,48.451c-0.079-0.716,0.316-1.524,1.572-1.872v3.585   C47.591,49.614,47.41,49.099,47.339,48.451z M50.753,59.929v-4.091c1.289,0.569,1.485,1.194,1.56,1.875   C52.458,59.014,51.597,59.634,50.753,59.929z">
                            </path>
                        </g>
                    </svg>
                    </svg>
                    <defs>
                    </defs>
                </g>
            </g>
        </g>
    </mask>
    <defs>
    </defs>
</svg>
