<?xml version="1.0" standalone="no"?>
<!DOCTYPE svg PUBLIC "-//W3C//DTD SVG 20010904//EN"
 "http://www.w3.org/TR/2001/REC-SVG-20010904/DTD/svg10.dtd">
<svg version="1.0" xmlns="http://www.w3.org/2000/svg"
 width="512.000000pt" height="512.000000pt" viewBox="0 0 512.000000 512.000000"
 preserveAspectRatio="xMidYMid meet">

<g transform="translate(0.000000,512.000000) scale(0.100000,-0.100000)"
fill="#FFF" stroke="none">
<path d="M2240 5024 c-863 -117 -1594 -662 -1950 -1454 -56 -126 -123 -328
-154 -470 -40 -184 -56 -334 -56 -540 0 -361 65 -678 205 -995 134 -301 294
-535 525 -765 373 -371 836 -606 1377 -697 155 -26 591 -26 746 0 547 92 1016
333 1394 715 299 303 528 702 634 1106 62 236 73 336 74 626 0 170 -5 295 -13
350 -94 609 -389 1152 -832 1533 -383 329 -825 527 -1323 592 -148 19 -481 18
-627 -1z m629 -339 c895 -131 1616 -816 1795 -1705 172 -852 -194 -1731 -919
-2210 -723 -476 -1666 -474 -2377 6 -442 298 -751 730 -883 1236 -51 199 -69
335 -69 543 -1 291 42 522 145 786 301 772 1012 1295 1854 1363 91 7 345 -4
454 -19z"/>
<path d="M2489 3784 c-57 -17 -122 -84 -140 -144 -11 -36 -8 -143 15 -654 15
-336 32 -629 38 -650 12 -50 62 -101 113 -115 78 -21 161 24 189 102 11 31 23
203 47 659 28 523 31 623 20 660 -18 60 -92 131 -154 146 -57 15 -70 14 -128
-4z"/>
<path d="M2509 1833 c-52 -8 -132 -66 -164 -117 -24 -40 -30 -62 -33 -120 -3
-63 0 -77 25 -126 55 -105 165 -156 278 -131 223 50 268 355 69 463 -49 26
-125 40 -175 31z"/>
</g>
</svg>
